<mxfile host="app.diagrams.net" modified="2023-12-01T13:54:58.355Z" agent="Mozilla/5.0 (Windows NT 10.0; Win64; x64; rv:120.0) Gecko/20100101 Firefox/120.0" etag="ZeOqyvHkV26tEOLK_lo-" version="22.1.5" type="github">
  <diagram name="Page-1" id="8378b5f6-a2b2-b727-a746-972ab9d02e00">
    <mxGraphModel dx="847" dy="556" grid="1" gridSize="10" guides="1" tooltips="1" connect="0" arrows="1" fold="1" page="1" pageScale="1.5" pageWidth="1169" pageHeight="827" background="none" math="0" shadow="0">
      <root>
        <mxCell id="0" />
        <mxCell id="1" parent="0" />
        <mxCell id="1cEkrv7Ao01gGzmioIyL-587" value="" style="strokeColor=#DEEDFF" vertex="1" parent="1">
          <mxGeometry x="1347" y="380" width="20" height="540" as="geometry" />
        </mxCell>
        <mxCell id="1cEkrv7Ao01gGzmioIyL-431" value="" style="strokeColor=#DEEDFF" vertex="1" parent="1">
          <mxGeometry x="1326.5" y="380" width="20" height="540" as="geometry" />
        </mxCell>
        <mxCell id="1cEkrv7Ao01gGzmioIyL-586" value="" style="strokeColor=#DEEDFF" vertex="1" parent="1">
          <mxGeometry x="1287.5" y="380" width="20" height="540" as="geometry" />
        </mxCell>
        <mxCell id="1cEkrv7Ao01gGzmioIyL-544" value="" style="strokeColor=#DEEDFF" vertex="1" parent="1">
          <mxGeometry x="866.5" y="380" width="20" height="540" as="geometry" />
        </mxCell>
        <mxCell id="1cEkrv7Ao01gGzmioIyL-543" value="" style="strokeColor=#DEEDFF" vertex="1" parent="1">
          <mxGeometry x="1028.25" y="380" width="20" height="540" as="geometry" />
        </mxCell>
        <mxCell id="1cEkrv7Ao01gGzmioIyL-526" value="" style="strokeColor=#DEEDFF" vertex="1" parent="1">
          <mxGeometry x="1625.5" y="380" width="20" height="540" as="geometry" />
        </mxCell>
        <mxCell id="1cEkrv7Ao01gGzmioIyL-519" value="" style="strokeColor=#DEEDFF;fillColor=#E6D0DE;" vertex="1" parent="1">
          <mxGeometry x="886.5" y="380" width="20" height="540" as="geometry" />
        </mxCell>
        <mxCell id="1cEkrv7Ao01gGzmioIyL-520" value="" style="strokeColor=#DEEDFF;fillColor=#E6D0DE;" vertex="1" parent="1">
          <mxGeometry x="1126.5" y="380" width="20" height="540" as="geometry" />
        </mxCell>
        <mxCell id="1cEkrv7Ao01gGzmioIyL-521" value="" style="strokeColor=#DEEDFF;fillColor=#E6D0DE;" vertex="1" parent="1">
          <mxGeometry x="1366.5" y="380" width="20" height="540" as="geometry" />
        </mxCell>
        <mxCell id="1cEkrv7Ao01gGzmioIyL-507" value="" style="strokeColor=#DEEDFF;fillColor=#D4E1FF" vertex="1" parent="1">
          <mxGeometry x="906.5" y="380" width="20" height="540" as="geometry" />
        </mxCell>
        <mxCell id="1cEkrv7Ao01gGzmioIyL-437" value="" style="strokeColor=#DEEDFF" vertex="1" parent="1">
          <mxGeometry x="1606.5" y="380" width="20" height="540" as="geometry" />
        </mxCell>
        <mxCell id="1cEkrv7Ao01gGzmioIyL-438" value="" style="strokeColor=#DEEDFF" vertex="1" parent="1">
          <mxGeometry x="1586.5" y="380" width="20" height="540" as="geometry" />
        </mxCell>
        <mxCell id="1cEkrv7Ao01gGzmioIyL-439" value="" style="strokeColor=#DEEDFF" vertex="1" parent="1">
          <mxGeometry x="1566.5" y="380" width="20" height="540" as="geometry" />
        </mxCell>
        <mxCell id="1cEkrv7Ao01gGzmioIyL-440" value="" style="strokeColor=#DEEDFF" vertex="1" parent="1">
          <mxGeometry x="1526.5" y="380" width="20" height="540" as="geometry" />
        </mxCell>
        <mxCell id="1cEkrv7Ao01gGzmioIyL-441" value="" style="strokeColor=#DEEDFF" vertex="1" parent="1">
          <mxGeometry x="1506.5" y="380" width="20" height="540" as="geometry" />
        </mxCell>
        <mxCell id="1cEkrv7Ao01gGzmioIyL-442" value="" style="strokeColor=#DEEDFF" vertex="1" parent="1">
          <mxGeometry x="1486.5" y="380" width="20" height="540" as="geometry" />
        </mxCell>
        <mxCell id="1cEkrv7Ao01gGzmioIyL-443" value="" style="strokeColor=#DEEDFF" vertex="1" parent="1">
          <mxGeometry x="1446.5" y="380" width="20" height="540" as="geometry" />
        </mxCell>
        <mxCell id="1cEkrv7Ao01gGzmioIyL-444" value="" style="strokeColor=#DEEDFF" vertex="1" parent="1">
          <mxGeometry x="1426.5" y="380" width="20" height="540" as="geometry" />
        </mxCell>
        <mxCell id="1cEkrv7Ao01gGzmioIyL-432" value="" style="strokeColor=#DEEDFF" vertex="1" parent="1">
          <mxGeometry x="1236.500000000002" y="350.0000000000002" width="20" height="520" as="geometry" />
        </mxCell>
        <mxCell id="1cEkrv7Ao01gGzmioIyL-433" value="" style="strokeColor=#DEEDFF" vertex="1" parent="1">
          <mxGeometry x="1266.5" y="380" width="20" height="540" as="geometry" />
        </mxCell>
        <mxCell id="1cEkrv7Ao01gGzmioIyL-434" value="" style="strokeColor=#DEEDFF" vertex="1" parent="1">
          <mxGeometry x="1246.5" y="380" width="20" height="540" as="geometry" />
        </mxCell>
        <mxCell id="1cEkrv7Ao01gGzmioIyL-435" value="" style="strokeColor=#DEEDFF" vertex="1" parent="1">
          <mxGeometry x="1206.5" y="380" width="20" height="540" as="geometry" />
        </mxCell>
        <mxCell id="1cEkrv7Ao01gGzmioIyL-436" value="" style="strokeColor=#DEEDFF" vertex="1" parent="1">
          <mxGeometry x="1186.5" y="380" width="20" height="540" as="geometry" />
        </mxCell>
        <mxCell id="1cEkrv7Ao01gGzmioIyL-422" value="" style="strokeColor=#DEEDFF" vertex="1" parent="1">
          <mxGeometry x="1106.5" y="380" width="20" height="540" as="geometry" />
        </mxCell>
        <mxCell id="1cEkrv7Ao01gGzmioIyL-423" value="" style="strokeColor=#DEEDFF" vertex="1" parent="1">
          <mxGeometry x="1086.5" y="380" width="20" height="540" as="geometry" />
        </mxCell>
        <mxCell id="1cEkrv7Ao01gGzmioIyL-424" value="" style="strokeColor=#DEEDFF" vertex="1" parent="1">
          <mxGeometry x="1046.5" y="380" width="20" height="540" as="geometry" />
        </mxCell>
        <mxCell id="1cEkrv7Ao01gGzmioIyL-426" value="" style="strokeColor=#DEEDFF" vertex="1" parent="1">
          <mxGeometry x="1006.5" y="380" width="20" height="540" as="geometry" />
        </mxCell>
        <mxCell id="1cEkrv7Ao01gGzmioIyL-427" value="" style="strokeColor=#DEEDFF" vertex="1" parent="1">
          <mxGeometry x="966.5" y="380" width="20" height="540" as="geometry" />
        </mxCell>
        <mxCell id="1cEkrv7Ao01gGzmioIyL-428" value="" style="strokeColor=#DEEDFF" vertex="1" parent="1">
          <mxGeometry x="946.5" y="380" width="20" height="540" as="geometry" />
        </mxCell>
        <mxCell id="1cEkrv7Ao01gGzmioIyL-418" value="" style="strokeColor=#DEEDFF" vertex="1" parent="1">
          <mxGeometry x="846.5" y="380" width="20" height="540" as="geometry" />
        </mxCell>
        <mxCell id="1cEkrv7Ao01gGzmioIyL-419" value="" style="strokeColor=#DEEDFF" vertex="1" parent="1">
          <mxGeometry x="826.5" y="380" width="20" height="540" as="geometry" />
        </mxCell>
        <mxCell id="1cEkrv7Ao01gGzmioIyL-420" value="" style="strokeColor=#DEEDFF" vertex="1" parent="1">
          <mxGeometry x="806.5" y="380" width="20" height="540" as="geometry" />
        </mxCell>
        <mxCell id="1cEkrv7Ao01gGzmioIyL-414" value="" style="strokeColor=#DEEDFF" vertex="1" parent="1">
          <mxGeometry x="786.5" y="380" width="20" height="540" as="geometry" />
        </mxCell>
        <mxCell id="1cEkrv7Ao01gGzmioIyL-413" value="" style="strokeColor=#DEEDFF" vertex="1" parent="1">
          <mxGeometry x="766.5" y="380" width="20" height="540" as="geometry" />
        </mxCell>
        <mxCell id="1cEkrv7Ao01gGzmioIyL-412" value="" style="strokeColor=#DEEDFF" vertex="1" parent="1">
          <mxGeometry x="746.5" y="380" width="20" height="540" as="geometry" />
        </mxCell>
        <mxCell id="1cEkrv7Ao01gGzmioIyL-411" value="" style="strokeColor=#DEEDFF" vertex="1" parent="1">
          <mxGeometry x="726.5" y="380" width="20" height="540" as="geometry" />
        </mxCell>
        <mxCell id="1cEkrv7Ao01gGzmioIyL-410" value="" style="strokeColor=#DEEDFF" vertex="1" parent="1">
          <mxGeometry x="706.5" y="380" width="20" height="540" as="geometry" />
        </mxCell>
        <mxCell id="1cEkrv7Ao01gGzmioIyL-393" value="" style="strokeColor=#DEEDFF;fillColor=#D4E1FF" vertex="1" parent="1">
          <mxGeometry x="1546.5" y="380" width="20" height="540" as="geometry" />
        </mxCell>
        <mxCell id="1cEkrv7Ao01gGzmioIyL-394" value="" style="strokeColor=#DEEDFF;fillColor=#D4E1FF" vertex="1" parent="1">
          <mxGeometry x="1466.5" y="380" width="20" height="540" as="geometry" />
        </mxCell>
        <mxCell id="1cEkrv7Ao01gGzmioIyL-395" value="" style="strokeColor=#DEEDFF;fillColor=#9AC7BF;" vertex="1" parent="1">
          <mxGeometry x="1406.5" y="380" width="20" height="540" as="geometry" />
        </mxCell>
        <mxCell id="1cEkrv7Ao01gGzmioIyL-385" value="" style="strokeColor=#DEEDFF;fillColor=#D4E1FF" vertex="1" parent="1">
          <mxGeometry x="1386.5" y="380" width="20" height="540" as="geometry" />
        </mxCell>
        <mxCell id="1cEkrv7Ao01gGzmioIyL-386" value="" style="strokeColor=#DEEDFF;fillColor=#D4E1FF" vertex="1" parent="1">
          <mxGeometry x="1306.5" y="380" width="20" height="540" as="geometry" />
        </mxCell>
        <mxCell id="1cEkrv7Ao01gGzmioIyL-387" value="" style="strokeColor=#DEEDFF;fillColor=#D4E1FF" vertex="1" parent="1">
          <mxGeometry x="1226.5" y="380" width="20" height="540" as="geometry" />
        </mxCell>
        <mxCell id="1cEkrv7Ao01gGzmioIyL-388" value="" style="strokeColor=#DEEDFF;fillColor=#9AC7BF;" vertex="1" parent="1">
          <mxGeometry x="1166.5" y="380" width="20" height="540" as="geometry" />
        </mxCell>
        <mxCell id="1cEkrv7Ao01gGzmioIyL-383" value="" style="strokeColor=#DEEDFF;fillColor=#D4E1FF" vertex="1" parent="1">
          <mxGeometry x="1146.5" y="380" width="20" height="540" as="geometry" />
        </mxCell>
        <mxCell id="1cEkrv7Ao01gGzmioIyL-379" value="" style="strokeColor=#DEEDFF;fillColor=#D4E1FF" vertex="1" parent="1">
          <mxGeometry x="1066.5" y="380" width="20" height="540" as="geometry" />
        </mxCell>
        <mxCell id="1cEkrv7Ao01gGzmioIyL-378" value="" style="strokeColor=#DEEDFF;fillColor=#D4E1FF" vertex="1" parent="1">
          <mxGeometry x="986.5" y="380" width="20" height="540" as="geometry" />
        </mxCell>
        <mxCell id="1cEkrv7Ao01gGzmioIyL-356" value="1" style="fillColor=#23445D;strokeColor=#FFFFFF;strokeWidth=2;fontColor=#FFFFFF;fontStyle=1" vertex="1" parent="1">
          <mxGeometry x="1406.5000000000018" y="360.0000000000001" width="20" height="20" as="geometry" />
        </mxCell>
        <mxCell id="1cEkrv7Ao01gGzmioIyL-357" value="2" style="fillColor=#23445D;strokeColor=#FFFFFF;strokeWidth=2;fontColor=#FFFFFF;fontStyle=1" vertex="1" parent="1">
          <mxGeometry x="1426.5000000000018" y="360.0000000000001" width="20" height="20" as="geometry" />
        </mxCell>
        <mxCell id="1cEkrv7Ao01gGzmioIyL-358" value="3" style="fillColor=#23445D;strokeColor=#FFFFFF;strokeWidth=2;fontColor=#FFFFFF;fontStyle=1" vertex="1" parent="1">
          <mxGeometry x="1446.5000000000018" y="360.0000000000001" width="20" height="20" as="geometry" />
        </mxCell>
        <mxCell id="1cEkrv7Ao01gGzmioIyL-359" value="4" style="fillColor=#23445D;strokeColor=#FFFFFF;strokeWidth=2;fontColor=#FFFFFF;fontStyle=1" vertex="1" parent="1">
          <mxGeometry x="1466.5000000000018" y="360.0000000000001" width="20" height="20" as="geometry" />
        </mxCell>
        <mxCell id="1cEkrv7Ao01gGzmioIyL-360" value="5" style="fillColor=#23445D;strokeColor=#FFFFFF;strokeWidth=2;fontColor=#FFFFFF;fontStyle=1" vertex="1" parent="1">
          <mxGeometry x="1486.5000000000016" y="360.0000000000001" width="20" height="20" as="geometry" />
        </mxCell>
        <mxCell id="1cEkrv7Ao01gGzmioIyL-361" value="6" style="fillColor=#23445D;strokeColor=#FFFFFF;strokeWidth=2;fontColor=#FFFFFF;fontStyle=1" vertex="1" parent="1">
          <mxGeometry x="1506.5000000000016" y="360.0000000000001" width="20" height="20" as="geometry" />
        </mxCell>
        <mxCell id="1cEkrv7Ao01gGzmioIyL-362" value="7" style="fillColor=#23445D;strokeColor=#FFFFFF;strokeWidth=2;fontColor=#FFFFFF;fontStyle=1" vertex="1" parent="1">
          <mxGeometry x="1526.5000000000016" y="360.0000000000001" width="20" height="20" as="geometry" />
        </mxCell>
        <mxCell id="1cEkrv7Ao01gGzmioIyL-363" value="8" style="fillColor=#23445D;strokeColor=#FFFFFF;strokeWidth=2;fontColor=#FFFFFF;fontStyle=1" vertex="1" parent="1">
          <mxGeometry x="1546.5000000000018" y="360.0000000000001" width="20" height="20" as="geometry" />
        </mxCell>
        <mxCell id="1cEkrv7Ao01gGzmioIyL-364" value="9" style="fillColor=#23445D;strokeColor=#FFFFFF;strokeWidth=2;fontColor=#FFFFFF;fontStyle=1" vertex="1" parent="1">
          <mxGeometry x="1566.5000000000018" y="360.0000000000001" width="20" height="20" as="geometry" />
        </mxCell>
        <mxCell id="1cEkrv7Ao01gGzmioIyL-365" value="10" style="fillColor=#23445D;strokeColor=#FFFFFF;strokeWidth=2;fontColor=#FFFFFF;fontStyle=1" vertex="1" parent="1">
          <mxGeometry x="1586.5000000000018" y="360.0000000000001" width="20" height="20" as="geometry" />
        </mxCell>
        <mxCell id="1cEkrv7Ao01gGzmioIyL-366" value="11" style="fillColor=#23445D;strokeColor=#FFFFFF;strokeWidth=2;fontColor=#FFFFFF;fontStyle=1" vertex="1" parent="1">
          <mxGeometry x="1606.5000000000018" y="360.0000000000001" width="20" height="20" as="geometry" />
        </mxCell>
        <mxCell id="1cEkrv7Ao01gGzmioIyL-367" value="12" style="fillColor=#23445D;strokeColor=#FFFFFF;strokeWidth=2;fontColor=#FFFFFF;fontStyle=1" vertex="1" parent="1">
          <mxGeometry x="1626.5000000000016" y="360.0000000000001" width="20" height="20" as="geometry" />
        </mxCell>
        <mxCell id="1cEkrv7Ao01gGzmioIyL-368" value="Michael" style="fillColor=#23445D;strokeColor=#FFFFFF;strokeWidth=2;fontColor=#FFFFFF;fontStyle=1" vertex="1" parent="1">
          <mxGeometry x="1586.5" y="340" width="60" height="20" as="geometry" />
        </mxCell>
        <mxCell id="1cEkrv7Ao01gGzmioIyL-369" value="Easter" style="fillColor=#23445D;strokeColor=#FFFFFF;strokeWidth=2;fontColor=#FFFFFF;fontStyle=1" vertex="1" parent="1">
          <mxGeometry x="1466.5" y="340" width="60" height="20" as="geometry" />
        </mxCell>
        <mxCell id="1cEkrv7Ao01gGzmioIyL-370" value="Lent" style="fillColor=#23445D;strokeColor=#FFFFFF;strokeWidth=2;fontColor=#FFFFFF;fontStyle=1" vertex="1" parent="1">
          <mxGeometry x="1406.5" y="340" width="60" height="20" as="geometry" />
        </mxCell>
        <mxCell id="1cEkrv7Ao01gGzmioIyL-371" value="Holiday" style="fillColor=#23445D;strokeColor=#FFFFFF;strokeWidth=2;fontColor=#FFFFFF;fontStyle=1" vertex="1" parent="1">
          <mxGeometry x="1526.5" y="340" width="60" height="20" as="geometry" />
        </mxCell>
        <mxCell id="1cEkrv7Ao01gGzmioIyL-372" value="2028" style="fillColor=#23445D;strokeColor=#FFFFFF;strokeWidth=2;fontColor=#FFFFFF;fontStyle=1" vertex="1" parent="1">
          <mxGeometry x="1406.5" y="320" width="240" height="20" as="geometry" />
        </mxCell>
        <mxCell id="1cEkrv7Ao01gGzmioIyL-287" value="1" style="fillColor=#23445D;strokeColor=#FFFFFF;strokeWidth=2;fontColor=#FFFFFF;fontStyle=1" vertex="1" parent="1">
          <mxGeometry x="926.5000000000018" y="360.0000000000001" width="20" height="20" as="geometry" />
        </mxCell>
        <mxCell id="1cEkrv7Ao01gGzmioIyL-288" value="2" style="fillColor=#23445D;strokeColor=#FFFFFF;strokeWidth=2;fontColor=#FFFFFF;fontStyle=1" vertex="1" parent="1">
          <mxGeometry x="946.5000000000018" y="360.0000000000001" width="20" height="20" as="geometry" />
        </mxCell>
        <mxCell id="1cEkrv7Ao01gGzmioIyL-289" value="3" style="fillColor=#23445D;strokeColor=#FFFFFF;strokeWidth=2;fontColor=#FFFFFF;fontStyle=1" vertex="1" parent="1">
          <mxGeometry x="966.5000000000018" y="360.0000000000001" width="20" height="20" as="geometry" />
        </mxCell>
        <mxCell id="1cEkrv7Ao01gGzmioIyL-290" value="4" style="fillColor=#23445D;strokeColor=#FFFFFF;strokeWidth=2;fontColor=#FFFFFF;fontStyle=1" vertex="1" parent="1">
          <mxGeometry x="986.5000000000018" y="360.0000000000001" width="20" height="20" as="geometry" />
        </mxCell>
        <mxCell id="1cEkrv7Ao01gGzmioIyL-291" value="5" style="fillColor=#23445D;strokeColor=#FFFFFF;strokeWidth=2;fontColor=#FFFFFF;fontStyle=1" vertex="1" parent="1">
          <mxGeometry x="1006.5000000000016" y="360.0000000000001" width="20" height="20" as="geometry" />
        </mxCell>
        <mxCell id="1cEkrv7Ao01gGzmioIyL-292" value="6" style="fillColor=#23445D;strokeColor=#FFFFFF;strokeWidth=2;fontColor=#FFFFFF;fontStyle=1" vertex="1" parent="1">
          <mxGeometry x="1026.5000000000016" y="360.0000000000001" width="20" height="20" as="geometry" />
        </mxCell>
        <mxCell id="1cEkrv7Ao01gGzmioIyL-293" value="7" style="fillColor=#23445D;strokeColor=#FFFFFF;strokeWidth=2;fontColor=#FFFFFF;fontStyle=1" vertex="1" parent="1">
          <mxGeometry x="1046.5000000000016" y="360.0000000000001" width="20" height="20" as="geometry" />
        </mxCell>
        <mxCell id="1cEkrv7Ao01gGzmioIyL-294" value="8" style="fillColor=#23445D;strokeColor=#FFFFFF;strokeWidth=2;fontColor=#FFFFFF;fontStyle=1" vertex="1" parent="1">
          <mxGeometry x="1066.5000000000018" y="360.0000000000001" width="20" height="20" as="geometry" />
        </mxCell>
        <mxCell id="1cEkrv7Ao01gGzmioIyL-295" value="9" style="fillColor=#23445D;strokeColor=#FFFFFF;strokeWidth=2;fontColor=#FFFFFF;fontStyle=1" vertex="1" parent="1">
          <mxGeometry x="1086.5000000000018" y="360.0000000000001" width="20" height="20" as="geometry" />
        </mxCell>
        <mxCell id="1cEkrv7Ao01gGzmioIyL-296" value="10" style="fillColor=#23445D;strokeColor=#FFFFFF;strokeWidth=2;fontColor=#FFFFFF;fontStyle=1" vertex="1" parent="1">
          <mxGeometry x="1106.5000000000018" y="360.0000000000001" width="20" height="20" as="geometry" />
        </mxCell>
        <mxCell id="1cEkrv7Ao01gGzmioIyL-297" value="11" style="fillColor=#23445D;strokeColor=#FFFFFF;strokeWidth=2;fontColor=#FFFFFF;fontStyle=1" vertex="1" parent="1">
          <mxGeometry x="1126.5000000000018" y="360.0000000000001" width="20" height="20" as="geometry" />
        </mxCell>
        <mxCell id="1cEkrv7Ao01gGzmioIyL-298" value="12" style="fillColor=#23445D;strokeColor=#FFFFFF;strokeWidth=2;fontColor=#FFFFFF;fontStyle=1" vertex="1" parent="1">
          <mxGeometry x="1146.5000000000016" y="360.0000000000001" width="20" height="20" as="geometry" />
        </mxCell>
        <mxCell id="1cEkrv7Ao01gGzmioIyL-299" value="Michael" style="fillColor=#23445D;strokeColor=#FFFFFF;strokeWidth=2;fontColor=#FFFFFF;fontStyle=1" vertex="1" parent="1">
          <mxGeometry x="1106.5" y="340" width="60" height="20" as="geometry" />
        </mxCell>
        <mxCell id="1cEkrv7Ao01gGzmioIyL-300" value="Easter" style="fillColor=#23445D;strokeColor=#FFFFFF;strokeWidth=2;fontColor=#FFFFFF;fontStyle=1" vertex="1" parent="1">
          <mxGeometry x="986.5" y="340" width="60" height="20" as="geometry" />
        </mxCell>
        <mxCell id="1cEkrv7Ao01gGzmioIyL-301" value="Lent" style="fillColor=#23445D;strokeColor=#FFFFFF;strokeWidth=2;fontColor=#FFFFFF;fontStyle=1" vertex="1" parent="1">
          <mxGeometry x="926.5" y="340" width="60" height="20" as="geometry" />
        </mxCell>
        <mxCell id="1cEkrv7Ao01gGzmioIyL-302" value="Holiday" style="fillColor=#23445D;strokeColor=#FFFFFF;strokeWidth=2;fontColor=#FFFFFF;fontStyle=1" vertex="1" parent="1">
          <mxGeometry x="1046.5" y="340" width="60" height="20" as="geometry" />
        </mxCell>
        <mxCell id="1cEkrv7Ao01gGzmioIyL-303" value="2026" style="fillColor=#23445D;strokeColor=#FFFFFF;strokeWidth=2;fontColor=#FFFFFF;fontStyle=1" vertex="1" parent="1">
          <mxGeometry x="926.5" y="320" width="240" height="20" as="geometry" />
        </mxCell>
        <mxCell id="1cEkrv7Ao01gGzmioIyL-321" value="1" style="fillColor=#23445D;strokeColor=#FFFFFF;strokeWidth=2;fontColor=#FFFFFF;fontStyle=1" vertex="1" parent="1">
          <mxGeometry x="1166.5000000000018" y="360.0000000000001" width="20" height="20" as="geometry" />
        </mxCell>
        <mxCell id="1cEkrv7Ao01gGzmioIyL-322" value="2" style="fillColor=#23445D;strokeColor=#FFFFFF;strokeWidth=2;fontColor=#FFFFFF;fontStyle=1" vertex="1" parent="1">
          <mxGeometry x="1186.5000000000018" y="360.0000000000001" width="20" height="20" as="geometry" />
        </mxCell>
        <mxCell id="1cEkrv7Ao01gGzmioIyL-323" value="3" style="fillColor=#23445D;strokeColor=#FFFFFF;strokeWidth=2;fontColor=#FFFFFF;fontStyle=1" vertex="1" parent="1">
          <mxGeometry x="1206.5000000000018" y="360.0000000000001" width="20" height="20" as="geometry" />
        </mxCell>
        <mxCell id="1cEkrv7Ao01gGzmioIyL-324" value="4" style="fillColor=#23445D;strokeColor=#FFFFFF;strokeWidth=2;fontColor=#FFFFFF;fontStyle=1" vertex="1" parent="1">
          <mxGeometry x="1226.5000000000018" y="360.0000000000001" width="20" height="20" as="geometry" />
        </mxCell>
        <mxCell id="1cEkrv7Ao01gGzmioIyL-325" value="5" style="fillColor=#23445D;strokeColor=#FFFFFF;strokeWidth=2;fontColor=#FFFFFF;fontStyle=1" vertex="1" parent="1">
          <mxGeometry x="1246.5000000000016" y="360.0000000000001" width="20" height="20" as="geometry" />
        </mxCell>
        <mxCell id="1cEkrv7Ao01gGzmioIyL-326" value="6" style="fillColor=#23445D;strokeColor=#FFFFFF;strokeWidth=2;fontColor=#FFFFFF;fontStyle=1" vertex="1" parent="1">
          <mxGeometry x="1266.5000000000016" y="360.0000000000001" width="20" height="20" as="geometry" />
        </mxCell>
        <mxCell id="1cEkrv7Ao01gGzmioIyL-327" value="7" style="fillColor=#23445D;strokeColor=#FFFFFF;strokeWidth=2;fontColor=#FFFFFF;fontStyle=1" vertex="1" parent="1">
          <mxGeometry x="1286.5000000000016" y="360.0000000000001" width="20" height="20" as="geometry" />
        </mxCell>
        <mxCell id="1cEkrv7Ao01gGzmioIyL-328" value="8" style="fillColor=#23445D;strokeColor=#FFFFFF;strokeWidth=2;fontColor=#FFFFFF;fontStyle=1" vertex="1" parent="1">
          <mxGeometry x="1306.5000000000018" y="360.0000000000001" width="20" height="20" as="geometry" />
        </mxCell>
        <mxCell id="1cEkrv7Ao01gGzmioIyL-329" value="9" style="fillColor=#23445D;strokeColor=#FFFFFF;strokeWidth=2;fontColor=#FFFFFF;fontStyle=1" vertex="1" parent="1">
          <mxGeometry x="1326.5000000000018" y="360.0000000000001" width="20" height="20" as="geometry" />
        </mxCell>
        <mxCell id="1cEkrv7Ao01gGzmioIyL-330" value="10" style="fillColor=#23445D;strokeColor=#FFFFFF;strokeWidth=2;fontColor=#FFFFFF;fontStyle=1" vertex="1" parent="1">
          <mxGeometry x="1346.5000000000018" y="360.0000000000001" width="20" height="20" as="geometry" />
        </mxCell>
        <mxCell id="1cEkrv7Ao01gGzmioIyL-331" value="11" style="fillColor=#23445D;strokeColor=#FFFFFF;strokeWidth=2;fontColor=#FFFFFF;fontStyle=1" vertex="1" parent="1">
          <mxGeometry x="1366.5000000000018" y="360.0000000000001" width="20" height="20" as="geometry" />
        </mxCell>
        <mxCell id="1cEkrv7Ao01gGzmioIyL-332" value="12" style="fillColor=#23445D;strokeColor=#FFFFFF;strokeWidth=2;fontColor=#FFFFFF;fontStyle=1" vertex="1" parent="1">
          <mxGeometry x="1386.5000000000016" y="360.0000000000001" width="20" height="20" as="geometry" />
        </mxCell>
        <mxCell id="1cEkrv7Ao01gGzmioIyL-333" value="Michael" style="fillColor=#23445D;strokeColor=#FFFFFF;strokeWidth=2;fontColor=#FFFFFF;fontStyle=1" vertex="1" parent="1">
          <mxGeometry x="1346.5" y="340" width="60" height="20" as="geometry" />
        </mxCell>
        <mxCell id="1cEkrv7Ao01gGzmioIyL-334" value="Easter" style="fillColor=#23445D;strokeColor=#FFFFFF;strokeWidth=2;fontColor=#FFFFFF;fontStyle=1" vertex="1" parent="1">
          <mxGeometry x="1226.5" y="340" width="60" height="20" as="geometry" />
        </mxCell>
        <mxCell id="1cEkrv7Ao01gGzmioIyL-335" value="Lent" style="fillColor=#23445D;strokeColor=#FFFFFF;strokeWidth=2;fontColor=#FFFFFF;fontStyle=1" vertex="1" parent="1">
          <mxGeometry x="1166.5" y="340" width="60" height="20" as="geometry" />
        </mxCell>
        <mxCell id="1cEkrv7Ao01gGzmioIyL-336" value="Holiday" style="fillColor=#23445D;strokeColor=#FFFFFF;strokeWidth=2;fontColor=#FFFFFF;fontStyle=1" vertex="1" parent="1">
          <mxGeometry x="1286.5" y="340" width="60" height="20" as="geometry" />
        </mxCell>
        <mxCell id="1cEkrv7Ao01gGzmioIyL-337" value="2027" style="fillColor=#23445D;strokeColor=#FFFFFF;strokeWidth=2;fontColor=#FFFFFF;fontStyle=1" vertex="1" parent="1">
          <mxGeometry x="1166.5" y="320" width="240" height="20" as="geometry" />
        </mxCell>
        <mxCell id="63" value="1" style="strokeColor=#DEEDFF;fillColor=#ADC3D9" parent="1" vertex="1">
          <mxGeometry x="86.5" y="380" width="40" height="20" as="geometry" />
        </mxCell>
        <mxCell id="64" value="PhD " style="align=left;strokeColor=#DEEDFF;fillColor=#ADC3D9" parent="1" vertex="1">
          <mxGeometry x="126.5" y="380" width="320" height="20" as="geometry" />
        </mxCell>
        <mxCell id="65" value="4 Years" style="strokeColor=#DEEDFF;fillColor=#ADC3D9" parent="1" vertex="1">
          <mxGeometry x="446.50000000000176" y="380" width="80.00000000000028" height="20" as="geometry" />
        </mxCell>
        <mxCell id="66" value="25.01.20" style="strokeColor=#DEEDFF;fillColor=#ADC3D9" parent="1" vertex="1">
          <mxGeometry x="526.500000000002" y="380" width="80.00000000000028" height="20" as="geometry" />
        </mxCell>
        <mxCell id="67" value="28.12.03" style="strokeColor=#DEEDFF;fillColor=#ADC3D9" parent="1" vertex="1">
          <mxGeometry x="606.5000000000016" y="380.0000000000002" width="80.00000000000028" height="20" as="geometry" />
        </mxCell>
        <mxCell id="68" value="" style="strokeColor=#DEEDFF" parent="1" vertex="1">
          <mxGeometry x="686.5" y="380" width="20" height="540" as="geometry" />
        </mxCell>
        <mxCell id="69" value="2" style="strokeColor=#DEEDFF;fillColor=#CCE5FF" parent="1" vertex="1">
          <mxGeometry x="86.50000000000026" y="399.9999999999999" width="40" height="20" as="geometry" />
        </mxCell>
        <mxCell id="74" value="3" style="strokeColor=#DEEDFF" parent="1" vertex="1">
          <mxGeometry x="86.50000000000027" y="419.9999999999998" width="40" height="20" as="geometry" />
        </mxCell>
        <mxCell id="79" value="4" style="strokeColor=#DEEDFF" parent="1" vertex="1">
          <mxGeometry x="86.5" y="440.00000000000017" width="40" height="20" as="geometry" />
        </mxCell>
        <mxCell id="84" value="5" style="strokeColor=#DEEDFF" parent="1" vertex="1">
          <mxGeometry x="86.49999999999991" y="460.00000000000017" width="40" height="20" as="geometry" />
        </mxCell>
        <mxCell id="89" value="6" style="strokeColor=#DEEDFF" parent="1" vertex="1">
          <mxGeometry x="86.4999999999999" y="480.00000000000045" width="40" height="20" as="geometry" />
        </mxCell>
        <mxCell id="91" value="" style="strokeColor=#DEEDFF" parent="1" vertex="1">
          <mxGeometry x="416.5000000000016" y="650.0000000000005" width="80.00000000000028" height="20" as="geometry" />
        </mxCell>
        <mxCell id="92" value="" style="strokeColor=#DEEDFF" parent="1" vertex="1">
          <mxGeometry x="496.5000000000018" y="650.0000000000005" width="80.00000000000028" height="20" as="geometry" />
        </mxCell>
        <mxCell id="93" value="" style="strokeColor=#DEEDFF" parent="1" vertex="1">
          <mxGeometry x="576.5000000000014" y="650.0000000000007" width="80.00000000000028" height="20" as="geometry" />
        </mxCell>
        <mxCell id="94" value="7" style="strokeColor=#DEEDFF" parent="1" vertex="1">
          <mxGeometry x="86.50000000000063" y="500.0000000000007" width="40" height="20" as="geometry" />
        </mxCell>
        <mxCell id="99" value="8" style="strokeColor=#DEEDFF;fillColor=#CCE5FF;" parent="1" vertex="1">
          <mxGeometry x="86.50000000000064" y="520.0000000000006" width="40" height="20" as="geometry" />
        </mxCell>
        <mxCell id="104" value="9" style="strokeColor=#DEEDFF;fillColor=#FFFFFF;" parent="1" vertex="1">
          <mxGeometry x="86.50000000000037" y="540.000000000001" width="40" height="20" as="geometry" />
        </mxCell>
        <mxCell id="105" value="First Year Report: PhD Proposal" style="align=left;strokeColor=#DEEDFF;fillColor=#CCE5FF" parent="1" vertex="1">
          <mxGeometry x="126.50000000000037" y="400.000000000001" width="319.99999999999966" height="20.00000000000003" as="geometry" />
        </mxCell>
        <mxCell id="106" value="1 Year" style="strokeColor=#DEEDFF;fillColor=#CCE5FF" parent="1" vertex="1">
          <mxGeometry x="446.5000000000021" y="400.0000000000009" width="80.00000000000028" height="20" as="geometry" />
        </mxCell>
        <mxCell id="107" value="25.01.20" style="strokeColor=#DEEDFF;fillColor=#CCE5FF" parent="1" vertex="1">
          <mxGeometry x="526.5000000000025" y="400.0000000000009" width="80.00000000000028" height="20" as="geometry" />
        </mxCell>
        <mxCell id="108" value="25.10.30" style="strokeColor=#DEEDFF;fillColor=#CCE5FF" parent="1" vertex="1">
          <mxGeometry x="606.5000000000018" y="400.00000000000125" width="80.00000000000028" height="20" as="geometry" />
        </mxCell>
        <mxCell id="109" value="10" style="strokeColor=#DEEDFF" parent="1" vertex="1">
          <mxGeometry x="86.50000000000028" y="560.000000000001" width="40" height="20" as="geometry" />
        </mxCell>
        <mxCell id="110" value="Literature Review" style="align=left;strokeColor=#DEEDFF" parent="1" vertex="1">
          <mxGeometry x="126.50000000000028" y="420.000000000001" width="319.9999999999997" height="20" as="geometry" />
        </mxCell>
        <mxCell id="111" value="4 Months" style="strokeColor=#DEEDFF" parent="1" vertex="1">
          <mxGeometry x="446.50000000000205" y="420.0000000000009" width="80.00000000000028" height="20" as="geometry" />
        </mxCell>
        <mxCell id="112" value="" style="strokeColor=#DEEDFF" parent="1" vertex="1">
          <mxGeometry x="526.5000000000023" y="420.0000000000009" width="80.00000000000028" height="20" as="geometry" />
        </mxCell>
        <mxCell id="113" value="" style="strokeColor=#DEEDFF" parent="1" vertex="1">
          <mxGeometry x="606.5000000000018" y="420.00000000000125" width="80.00000000000028" height="20" as="geometry" />
        </mxCell>
        <mxCell id="114" value="11" style="strokeColor=#DEEDFF" parent="1" vertex="1">
          <mxGeometry x="86.50000000000027" y="580.0000000000013" width="40" height="20" as="geometry" />
        </mxCell>
        <mxCell id="115" value="Progress Report" style="align=left;strokeColor=#DEEDFF" parent="1" vertex="1">
          <mxGeometry x="126.50000000000027" y="440.00000000000125" width="319.9999999999997" height="20" as="geometry" />
        </mxCell>
        <mxCell id="116" value="6 Months" style="strokeColor=#DEEDFF" parent="1" vertex="1">
          <mxGeometry x="446.50000000000205" y="440.00000000000114" width="80.00000000000028" height="20" as="geometry" />
        </mxCell>
        <mxCell id="117" value="25.04.28" style="strokeColor=#DEEDFF" parent="1" vertex="1">
          <mxGeometry x="526.5000000000023" y="440.00000000000114" width="80.00000000000028" height="20" as="geometry" />
        </mxCell>
        <mxCell id="118" value="25.10.28" style="strokeColor=#DEEDFF" parent="1" vertex="1">
          <mxGeometry x="606.5000000000018" y="440.0000000000015" width="80.00000000000028" height="20" as="geometry" />
        </mxCell>
        <mxCell id="119" value="12" style="strokeColor=#DEEDFF;fillColor=#CCE5FF;" parent="1" vertex="1">
          <mxGeometry x="86.49999999999997" y="600.0000000000016" width="40" height="20" as="geometry" />
        </mxCell>
        <mxCell id="120" value="Thesis Proposal" style="align=left;strokeColor=#DEEDFF" parent="1" vertex="1">
          <mxGeometry x="126.49999999999997" y="460.0000000000016" width="320" height="20" as="geometry" />
        </mxCell>
        <mxCell id="121" value="2 Months" style="strokeColor=#DEEDFF" parent="1" vertex="1">
          <mxGeometry x="446.5000000000017" y="460.0000000000015" width="80.00000000000028" height="20" as="geometry" />
        </mxCell>
        <mxCell id="122" value="25.06" style="strokeColor=#DEEDFF" parent="1" vertex="1">
          <mxGeometry x="526.500000000002" y="460.0000000000015" width="80.00000000000028" height="20" as="geometry" />
        </mxCell>
        <mxCell id="123" value="25.08" style="strokeColor=#DEEDFF" parent="1" vertex="1">
          <mxGeometry x="606.5000000000015" y="460.0000000000018" width="80.00000000000028" height="20" as="geometry" />
        </mxCell>
        <mxCell id="124" value="13" style="strokeColor=#DEEDFF" parent="1" vertex="1">
          <mxGeometry x="86.49999999999999" y="620.0000000000014" width="40" height="20" as="geometry" />
        </mxCell>
        <mxCell id="125" value="Detailed Timetable for Year 2" style="align=left;strokeColor=#DEEDFF" parent="1" vertex="1">
          <mxGeometry x="126.49999999999999" y="500.00000000000136" width="320" height="20" as="geometry" />
        </mxCell>
        <mxCell id="126" value="2 weeks" style="strokeColor=#DEEDFF" parent="1" vertex="1">
          <mxGeometry x="446.5000000000017" y="500.00000000000136" width="80.00000000000028" height="20" as="geometry" />
        </mxCell>
        <mxCell id="127" value="25.10" style="strokeColor=#DEEDFF" parent="1" vertex="1">
          <mxGeometry x="526.500000000002" y="500.00000000000136" width="80.00000000000028" height="20" as="geometry" />
        </mxCell>
        <mxCell id="128" value="25.10" style="strokeColor=#DEEDFF" parent="1" vertex="1">
          <mxGeometry x="606.5000000000015" y="500.0000000000016" width="80.00000000000028" height="20" as="geometry" />
        </mxCell>
        <mxCell id="129" value="14" style="strokeColor=#DEEDFF" parent="1" vertex="1">
          <mxGeometry x="86.49999999999972" y="640.0000000000018" width="40" height="20" as="geometry" />
        </mxCell>
        <mxCell id="134" value="15" style="strokeColor=#DEEDFF;fillColor=#FFFFFF" parent="1" vertex="1">
          <mxGeometry x="86.49999999999963" y="660.0000000000018" width="40" height="20" as="geometry" />
        </mxCell>
        <mxCell id="139" value="16" style="strokeColor=#DEEDFF;fillColor=#CCE5FF" parent="1" vertex="1">
          <mxGeometry x="86.49999999999962" y="680.000000000002" width="40" height="20" as="geometry" />
        </mxCell>
        <mxCell id="140" value="Second Year Report: Thesis Schedule" style="align=left;strokeColor=#DEEDFF;fillColor=#CCE5FF" parent="1" vertex="1">
          <mxGeometry x="126.49999999999966" y="600.000000000002" width="320.0000000000004" height="20" as="geometry" />
        </mxCell>
        <mxCell id="141" value="1 Year" style="strokeColor=#DEEDFF;fillColor=#CCE5FF" parent="1" vertex="1">
          <mxGeometry x="446.50000000000136" y="600.000000000002" width="80.00000000000028" height="20" as="geometry" />
        </mxCell>
        <mxCell id="142" value="26.01.19" style="strokeColor=#DEEDFF;fillColor=#CCE5FF" parent="1" vertex="1">
          <mxGeometry x="526.5000000000016" y="600.000000000002" width="80.00000000000028" height="20" as="geometry" />
        </mxCell>
        <mxCell id="143" value="26.10.30" style="strokeColor=#DEEDFF;fillColor=#CCE5FF" parent="1" vertex="1">
          <mxGeometry x="606.5000000000011" y="600.0000000000023" width="80.00000000000028" height="20" as="geometry" />
        </mxCell>
        <mxCell id="144" value="17" style="strokeColor=#DEEDFF" parent="1" vertex="1">
          <mxGeometry x="86.500000000001" y="700.0000000000023" width="40" height="20" as="geometry" />
        </mxCell>
        <mxCell id="145" value="Progress Report 2" style="align=left;strokeColor=#DEEDFF" parent="1" vertex="1">
          <mxGeometry x="126.50000000000102" y="620.0000000000023" width="319.999999999999" height="20" as="geometry" />
        </mxCell>
        <mxCell id="146" value="6 months" style="strokeColor=#DEEDFF" parent="1" vertex="1">
          <mxGeometry x="446.50000000000273" y="620.0000000000023" width="80.00000000000028" height="20" as="geometry" />
        </mxCell>
        <mxCell id="147" value="26.04" style="strokeColor=#DEEDFF" parent="1" vertex="1">
          <mxGeometry x="526.500000000003" y="620.0000000000023" width="80.00000000000028" height="20" as="geometry" />
        </mxCell>
        <mxCell id="148" value="26.10" style="strokeColor=#DEEDFF" parent="1" vertex="1">
          <mxGeometry x="606.5000000000025" y="620.0000000000025" width="80.00000000000028" height="20" as="geometry" />
        </mxCell>
        <mxCell id="149" value="18" style="strokeColor=#DEEDFF" parent="1" vertex="1">
          <mxGeometry x="86.50000000000102" y="720.0000000000022" width="40" height="20" as="geometry" />
        </mxCell>
        <mxCell id="150" value="Thesis Outline" style="align=left;strokeColor=#DEEDFF" parent="1" vertex="1">
          <mxGeometry x="126.50000000000102" y="640.0000000000023" width="319.999999999999" height="20" as="geometry" />
        </mxCell>
        <mxCell id="151" value="2 months" style="strokeColor=#DEEDFF" parent="1" vertex="1">
          <mxGeometry x="446.50000000000273" y="640.000000000002" width="80.00000000000028" height="20" as="geometry" />
        </mxCell>
        <mxCell id="152" value="26.08" style="strokeColor=#DEEDFF" parent="1" vertex="1">
          <mxGeometry x="526.500000000003" y="640.000000000002" width="80.00000000000028" height="20" as="geometry" />
        </mxCell>
        <mxCell id="153" value="26.10" style="strokeColor=#DEEDFF" parent="1" vertex="1">
          <mxGeometry x="606.5000000000025" y="640.0000000000023" width="80.00000000000028" height="20" as="geometry" />
        </mxCell>
        <mxCell id="154" value="19" style="strokeColor=#DEEDFF" parent="1" vertex="1">
          <mxGeometry x="86.50000000000074" y="740.0000000000025" width="40" height="20" as="geometry" />
        </mxCell>
        <mxCell id="155" value="Thesis Schedule" style="align=left;strokeColor=#DEEDFF" parent="1" vertex="1">
          <mxGeometry x="126.50000000000068" y="660.0000000000025" width="319.99999999999926" height="20" as="geometry" />
        </mxCell>
        <mxCell id="156" value="3 weeks" style="strokeColor=#DEEDFF" parent="1" vertex="1">
          <mxGeometry x="446.5000000000025" y="660.0000000000025" width="80.00000000000028" height="20" as="geometry" />
        </mxCell>
        <mxCell id="157" value="" style="strokeColor=#DEEDFF" parent="1" vertex="1">
          <mxGeometry x="526.5000000000027" y="660.0000000000025" width="80.00000000000028" height="20" as="geometry" />
        </mxCell>
        <mxCell id="158" value="" style="strokeColor=#DEEDFF" parent="1" vertex="1">
          <mxGeometry x="606.5000000000023" y="660.0000000000027" width="80.00000000000028" height="20" as="geometry" />
        </mxCell>
        <mxCell id="159" value="20" style="strokeColor=#DEEDFF" parent="1" vertex="1">
          <mxGeometry x="86.50000000000065" y="760.0000000000025" width="40" height="20" as="geometry" />
        </mxCell>
        <mxCell id="164" value="21" style="strokeColor=#DEEDFF;fillColor=#CCE5FF;" parent="1" vertex="1">
          <mxGeometry x="86.50000000000065" y="780.0000000000028" width="40" height="20" as="geometry" />
        </mxCell>
        <mxCell id="169" value="22" style="strokeColor=#DEEDFF" parent="1" vertex="1">
          <mxGeometry x="86.50000000000136" y="800.0000000000031" width="40" height="20" as="geometry" />
        </mxCell>
        <mxCell id="170" value="Third Year Report: Progress Statement" style="align=left;strokeColor=#DEEDFF;fillColor=#CCE5FF;" parent="1" vertex="1">
          <mxGeometry x="126.50000000000136" y="780.0000000000032" width="319.99999999999864" height="20" as="geometry" />
        </mxCell>
        <mxCell id="171" value="1 Year" style="strokeColor=#DEEDFF;fillColor=#CCE5FF;" parent="1" vertex="1">
          <mxGeometry x="446.5000000000032" y="780.000000000003" width="80.00000000000028" height="20" as="geometry" />
        </mxCell>
        <mxCell id="172" value="27.01.18" style="strokeColor=#DEEDFF;fillColor=#CCE5FF;" parent="1" vertex="1">
          <mxGeometry x="526.5000000000034" y="780.000000000003" width="80.00000000000028" height="20" as="geometry" />
        </mxCell>
        <mxCell id="173" value="27.10.30" style="strokeColor=#DEEDFF;fillColor=#CCE5FF;" parent="1" vertex="1">
          <mxGeometry x="606.500000000003" y="780.0000000000032" width="80.00000000000028" height="20" as="geometry" />
        </mxCell>
        <mxCell id="174" value="23" style="strokeColor=#DEEDFF;fillColor=#CCE5FF;" parent="1" vertex="1">
          <mxGeometry x="86.50000000000139" y="820.000000000003" width="40" height="20" as="geometry" />
        </mxCell>
        <mxCell id="179" value="24" style="strokeColor=#DEEDFF" parent="1" vertex="1">
          <mxGeometry x="86.50000000000111" y="840.0000000000034" width="40" height="20" as="geometry" />
        </mxCell>
        <mxCell id="184" value="25" style="strokeColor=#DEEDFF" parent="1" vertex="1">
          <mxGeometry x="86.50000000000102" y="860.0000000000034" width="40" height="20" as="geometry" />
        </mxCell>
        <mxCell id="189" value="26" style="strokeColor=#DEEDFF" parent="1" vertex="1">
          <mxGeometry x="86.50000000000102" y="880.0000000000036" width="40" height="20" as="geometry" />
        </mxCell>
        <mxCell id="199" value="" style="strokeColor=#DEEDFF;fillColor=#9AC7BF;" parent="1" vertex="1">
          <mxGeometry x="926.5" y="380" width="20" height="540" as="geometry" />
        </mxCell>
        <mxCell id="2" value="Task Name" style="fillColor=#23445D;strokeColor=#FFFFFF;strokeWidth=2;fontColor=#FFFFFF;fontStyle=1" parent="1" vertex="1">
          <mxGeometry x="126.5" y="340" width="320" height="40" as="geometry" />
        </mxCell>
        <mxCell id="3" value="" style="fillColor=#23445D;strokeColor=#FFFFFF;strokeWidth=2;fontColor=#FFFFFF;fontStyle=1" parent="1" vertex="1">
          <mxGeometry x="86.5" y="340" width="40" height="40" as="geometry" />
        </mxCell>
        <mxCell id="5" value="1" style="fillColor=#23445D;strokeColor=#FFFFFF;strokeWidth=2;fontColor=#FFFFFF;fontStyle=1" parent="1" vertex="1">
          <mxGeometry x="686.5000000000018" y="360.0000000000001" width="20" height="20" as="geometry" />
        </mxCell>
        <mxCell id="6" value="2" style="fillColor=#23445D;strokeColor=#FFFFFF;strokeWidth=2;fontColor=#FFFFFF;fontStyle=1" parent="1" vertex="1">
          <mxGeometry x="706.5000000000018" y="360.0000000000001" width="20" height="20" as="geometry" />
        </mxCell>
        <mxCell id="7" value="3" style="fillColor=#23445D;strokeColor=#FFFFFF;strokeWidth=2;fontColor=#FFFFFF;fontStyle=1" parent="1" vertex="1">
          <mxGeometry x="726.5000000000018" y="360.0000000000001" width="20" height="20" as="geometry" />
        </mxCell>
        <mxCell id="8" value="4" style="fillColor=#23445D;strokeColor=#FFFFFF;strokeWidth=2;fontColor=#FFFFFF;fontStyle=1" parent="1" vertex="1">
          <mxGeometry x="746.5000000000018" y="360.0000000000001" width="20" height="20" as="geometry" />
        </mxCell>
        <mxCell id="9" value="5" style="fillColor=#23445D;strokeColor=#FFFFFF;strokeWidth=2;fontColor=#FFFFFF;fontStyle=1" parent="1" vertex="1">
          <mxGeometry x="766.5000000000016" y="360.0000000000001" width="20" height="20" as="geometry" />
        </mxCell>
        <mxCell id="10" value="6" style="fillColor=#23445D;strokeColor=#FFFFFF;strokeWidth=2;fontColor=#FFFFFF;fontStyle=1" parent="1" vertex="1">
          <mxGeometry x="786.5000000000016" y="360.0000000000001" width="20" height="20" as="geometry" />
        </mxCell>
        <mxCell id="11" value="7" style="fillColor=#23445D;strokeColor=#FFFFFF;strokeWidth=2;fontColor=#FFFFFF;fontStyle=1" parent="1" vertex="1">
          <mxGeometry x="806.5000000000016" y="360.0000000000001" width="20" height="20" as="geometry" />
        </mxCell>
        <mxCell id="12" value="Duration" style="fillColor=#23445D;strokeColor=#FFFFFF;strokeWidth=2;fontColor=#FFFFFF;fontStyle=1" parent="1" vertex="1">
          <mxGeometry x="446.50000000000176" y="340.00000000000006" width="80.00000000000006" height="40.00000000000001" as="geometry" />
        </mxCell>
        <mxCell id="13" value="Start&#xa;(YY.MM)" style="fillColor=#23445D;strokeColor=#FFFFFF;strokeWidth=2;fontColor=#FFFFFF;fontStyle=1" parent="1" vertex="1">
          <mxGeometry x="526.5000000000018" y="340.00000000000006" width="80.00000000000006" height="40.00000000000001" as="geometry" />
        </mxCell>
        <mxCell id="14" value="ETA" style="fillColor=#23445D;strokeColor=#FFFFFF;strokeWidth=2;fontColor=#FFFFFF;fontStyle=1" parent="1" vertex="1">
          <mxGeometry x="606.5000000000019" y="340.0000000000001" width="80.00000000000006" height="40.00000000000001" as="geometry" />
        </mxCell>
        <mxCell id="16" value="8" style="fillColor=#23445D;strokeColor=#FFFFFF;strokeWidth=2;fontColor=#FFFFFF;fontStyle=1" parent="1" vertex="1">
          <mxGeometry x="826.5000000000018" y="360.0000000000001" width="20" height="20" as="geometry" />
        </mxCell>
        <mxCell id="17" value="9" style="fillColor=#23445D;strokeColor=#FFFFFF;strokeWidth=2;fontColor=#FFFFFF;fontStyle=1" parent="1" vertex="1">
          <mxGeometry x="846.5000000000018" y="360.0000000000001" width="20" height="20" as="geometry" />
        </mxCell>
        <mxCell id="18" value="10" style="fillColor=#23445D;strokeColor=#FFFFFF;strokeWidth=2;fontColor=#FFFFFF;fontStyle=1" parent="1" vertex="1">
          <mxGeometry x="866.5000000000018" y="360.0000000000001" width="20" height="20" as="geometry" />
        </mxCell>
        <mxCell id="19" value="11" style="fillColor=#23445D;strokeColor=#FFFFFF;strokeWidth=2;fontColor=#FFFFFF;fontStyle=1" parent="1" vertex="1">
          <mxGeometry x="886.5000000000018" y="360.0000000000001" width="20" height="20" as="geometry" />
        </mxCell>
        <mxCell id="20" value="12" style="fillColor=#23445D;strokeColor=#FFFFFF;strokeWidth=2;fontColor=#FFFFFF;fontStyle=1" parent="1" vertex="1">
          <mxGeometry x="906.5000000000016" y="360.0000000000001" width="20" height="20" as="geometry" />
        </mxCell>
        <mxCell id="23" value="Michael" style="fillColor=#23445D;strokeColor=#FFFFFF;strokeWidth=2;fontColor=#FFFFFF;fontStyle=1" parent="1" vertex="1">
          <mxGeometry x="866.5" y="340" width="60" height="20" as="geometry" />
        </mxCell>
        <mxCell id="242" value="" style="shape=mxgraph.flowchart.process;fillColor=#AE4132;strokeColor=#000000;strokeWidth=2;opacity=50" parent="1" vertex="1">
          <mxGeometry x="686.5" y="400" width="200" height="20" as="geometry" />
        </mxCell>
        <mxCell id="244" value="" style="shape=mxgraph.flowchart.process;fillColor=#AE4132;strokeColor=none;strokeWidth=2;opacity=50" parent="1" vertex="1">
          <mxGeometry x="686.5" y="420" width="81" height="20" as="geometry" />
        </mxCell>
        <mxCell id="245" value="" style="shape=mxgraph.flowchart.process;fillColor=#AE4132;strokeColor=none;strokeWidth=2;opacity=50" parent="1" vertex="1">
          <mxGeometry x="766.5" y="440" width="120" height="20" as="geometry" />
        </mxCell>
        <mxCell id="254" value="" style="shape=mxgraph.flowchart.process;fillColor=#AE4132;strokeColor=#000000;strokeWidth=2;opacity=100" parent="1" vertex="1">
          <mxGeometry x="686.5" y="380" width="720" height="20" as="geometry" />
        </mxCell>
        <mxCell id="1cEkrv7Ao01gGzmioIyL-278" value="Easter" style="fillColor=#23445D;strokeColor=#FFFFFF;strokeWidth=2;fontColor=#FFFFFF;fontStyle=1" vertex="1" parent="1">
          <mxGeometry x="746.5" y="340" width="60" height="20" as="geometry" />
        </mxCell>
        <mxCell id="1cEkrv7Ao01gGzmioIyL-279" value="Lent" style="fillColor=#23445D;strokeColor=#FFFFFF;strokeWidth=2;fontColor=#FFFFFF;fontStyle=1" vertex="1" parent="1">
          <mxGeometry x="686.5" y="340" width="60" height="20" as="geometry" />
        </mxCell>
        <mxCell id="1cEkrv7Ao01gGzmioIyL-280" value="Holiday" style="fillColor=#23445D;strokeColor=#FFFFFF;strokeWidth=2;fontColor=#FFFFFF;fontStyle=1" vertex="1" parent="1">
          <mxGeometry x="806.5" y="340" width="60" height="20" as="geometry" />
        </mxCell>
        <mxCell id="1cEkrv7Ao01gGzmioIyL-281" value="2025" style="fillColor=#23445D;strokeColor=#FFFFFF;strokeWidth=2;fontColor=#FFFFFF;fontStyle=1" vertex="1" parent="1">
          <mxGeometry x="686.5" y="320" width="240" height="20" as="geometry" />
        </mxCell>
        <mxCell id="1cEkrv7Ao01gGzmioIyL-375" value="Buffer" style="shape=mxgraph.flowchart.process;fillColor=#006600;strokeColor=#000000;strokeWidth=2;opacity=100;fontColor=#FFFFFF;fontStyle=1" vertex="1" parent="1">
          <mxGeometry x="1406.5" y="380" width="239" height="20" as="geometry" />
        </mxCell>
        <mxCell id="1cEkrv7Ao01gGzmioIyL-447" value="Topic 1: Static estimation of GPU occupancy" style="align=left;strokeColor=#DEEDFF;fillColor=#CCE5FF" vertex="1" parent="1">
          <mxGeometry x="126.50000000000026" y="520" width="319.9999999999998" height="20" as="geometry" />
        </mxCell>
        <mxCell id="1cEkrv7Ao01gGzmioIyL-448" value="6 Months" style="strokeColor=#DEEDFF;fillColor=#CCE5FF" vertex="1" parent="1">
          <mxGeometry x="446.500000000002" y="519.9999999999998" width="80.00000000000028" height="20" as="geometry" />
        </mxCell>
        <mxCell id="1cEkrv7Ao01gGzmioIyL-449" value="25.04" style="strokeColor=#DEEDFF;fillColor=#CCE5FF" vertex="1" parent="1">
          <mxGeometry x="526.5000000000023" y="519.9999999999998" width="80.00000000000028" height="20" as="geometry" />
        </mxCell>
        <mxCell id="1cEkrv7Ao01gGzmioIyL-450" value="25.10" style="strokeColor=#DEEDFF;fillColor=#CCE5FF" vertex="1" parent="1">
          <mxGeometry x="606.5000000000018" y="520" width="80.00000000000028" height="20" as="geometry" />
        </mxCell>
        <mxCell id="1cEkrv7Ao01gGzmioIyL-451" value="Occupancy estimation for functional compositors" style="align=left;strokeColor=#DEEDFF" vertex="1" parent="1">
          <mxGeometry x="126.50000000000027" y="539.9999999999998" width="319.9999999999997" height="20.000000000000014" as="geometry" />
        </mxCell>
        <mxCell id="1cEkrv7Ao01gGzmioIyL-452" value="2 Months" style="strokeColor=#DEEDFF" vertex="1" parent="1">
          <mxGeometry x="446.500000000002" y="539.9999999999998" width="80.00000000000028" height="20" as="geometry" />
        </mxCell>
        <mxCell id="1cEkrv7Ao01gGzmioIyL-453" value="25.04" style="strokeColor=#DEEDFF" vertex="1" parent="1">
          <mxGeometry x="526.5000000000023" y="539.9999999999998" width="80.00000000000028" height="20" as="geometry" />
        </mxCell>
        <mxCell id="1cEkrv7Ao01gGzmioIyL-454" value="25.06" style="strokeColor=#DEEDFF" vertex="1" parent="1">
          <mxGeometry x="606.5000000000018" y="540" width="80.00000000000028" height="20" as="geometry" />
        </mxCell>
        <mxCell id="1cEkrv7Ao01gGzmioIyL-455" value="Occupancy estimation for affine kernels with barriers" style="align=left;strokeColor=#DEEDFF" vertex="1" parent="1">
          <mxGeometry x="126.5" y="560.0000000000002" width="320" height="20" as="geometry" />
        </mxCell>
        <mxCell id="1cEkrv7Ao01gGzmioIyL-456" value="2 Months" style="strokeColor=#DEEDFF" vertex="1" parent="1">
          <mxGeometry x="446.5000000000017" y="560" width="80.00000000000028" height="20" as="geometry" />
        </mxCell>
        <mxCell id="1cEkrv7Ao01gGzmioIyL-457" value="25.06" style="strokeColor=#DEEDFF" vertex="1" parent="1">
          <mxGeometry x="526.500000000002" y="560" width="80.00000000000028" height="20" as="geometry" />
        </mxCell>
        <mxCell id="1cEkrv7Ao01gGzmioIyL-458" value="25.08" style="strokeColor=#DEEDFF" vertex="1" parent="1">
          <mxGeometry x="606.5000000000015" y="560.0000000000005" width="80.00000000000028" height="20" as="geometry" />
        </mxCell>
        <mxCell id="1cEkrv7Ao01gGzmioIyL-460" value="2 Months" style="strokeColor=#DEEDFF" vertex="1" parent="1">
          <mxGeometry x="446.50000000000165" y="580" width="80.00000000000028" height="20" as="geometry" />
        </mxCell>
        <mxCell id="1cEkrv7Ao01gGzmioIyL-461" value="25.08" style="strokeColor=#DEEDFF" vertex="1" parent="1">
          <mxGeometry x="526.5000000000019" y="580" width="80.00000000000028" height="20" as="geometry" />
        </mxCell>
        <mxCell id="1cEkrv7Ao01gGzmioIyL-462" value="25.10" style="strokeColor=#DEEDFF" vertex="1" parent="1">
          <mxGeometry x="606.5000000000015" y="580.0000000000005" width="80.00000000000028" height="20" as="geometry" />
        </mxCell>
        <mxCell id="1cEkrv7Ao01gGzmioIyL-468" style="edgeStyle=orthogonalEdgeStyle;rounded=0;orthogonalLoop=1;jettySize=auto;html=1;" edge="1" parent="1" source="1cEkrv7Ao01gGzmioIyL-464" target="1cEkrv7Ao01gGzmioIyL-467">
          <mxGeometry relative="1" as="geometry">
            <Array as="points">
              <mxPoint x="1140" y="610" />
            </Array>
          </mxGeometry>
        </mxCell>
        <mxCell id="1cEkrv7Ao01gGzmioIyL-464" value="" style="shape=mxgraph.flowchart.process;fillColor=#AE4132;strokeColor=#000000;strokeWidth=2;opacity=50" vertex="1" parent="1">
          <mxGeometry x="886.5" y="600" width="240" height="20" as="geometry" />
        </mxCell>
        <mxCell id="1cEkrv7Ao01gGzmioIyL-466" style="edgeStyle=orthogonalEdgeStyle;rounded=0;orthogonalLoop=1;jettySize=auto;html=1;" edge="1" parent="1" source="242" target="1cEkrv7Ao01gGzmioIyL-464">
          <mxGeometry relative="1" as="geometry">
            <mxPoint x="897" y="530" as="targetPoint" />
            <Array as="points">
              <mxPoint x="897" y="410" />
            </Array>
          </mxGeometry>
        </mxCell>
        <mxCell id="1cEkrv7Ao01gGzmioIyL-467" value="" style="shape=mxgraph.flowchart.process;fillColor=#AE4132;strokeColor=#000000;strokeWidth=2;opacity=50" vertex="1" parent="1">
          <mxGeometry x="1126.5" y="780" width="240" height="20" as="geometry" />
        </mxCell>
        <mxCell id="1cEkrv7Ao01gGzmioIyL-497" value="Paper Preparation for Fall ASPLOS&#39;25 CFP" style="align=left;strokeColor=#DEEDFF" vertex="1" parent="1">
          <mxGeometry x="126.5" y="580.0000000000002" width="320" height="20" as="geometry" />
        </mxCell>
        <mxCell id="1cEkrv7Ao01gGzmioIyL-498" value="" style="shape=mxgraph.flowchart.process;fillColor=#AE4132;strokeColor=none;strokeWidth=2;opacity=50" vertex="1" parent="1">
          <mxGeometry x="787" y="460" width="60" height="20" as="geometry" />
        </mxCell>
        <mxCell id="1cEkrv7Ao01gGzmioIyL-499" value="" style="shape=mxgraph.flowchart.process;fillColor=#AE4132;strokeColor=none;strokeWidth=2;opacity=50" vertex="1" parent="1">
          <mxGeometry x="837" y="480" width="20" height="20" as="geometry" />
        </mxCell>
        <mxCell id="1cEkrv7Ao01gGzmioIyL-501" value="" style="shape=mxgraph.flowchart.process;fillColor=#AE4132;strokeColor=#000000;strokeWidth=2;opacity=50" vertex="1" parent="1">
          <mxGeometry x="766.5" y="520" width="120" height="20" as="geometry" />
        </mxCell>
        <mxCell id="1cEkrv7Ao01gGzmioIyL-505" style="edgeStyle=orthogonalEdgeStyle;rounded=0;orthogonalLoop=1;jettySize=auto;html=1;entryX=0.254;entryY=0.035;entryDx=0;entryDy=0;entryPerimeter=0;" edge="1" parent="1" source="1cEkrv7Ao01gGzmioIyL-502" target="1cEkrv7Ao01gGzmioIyL-503">
          <mxGeometry relative="1" as="geometry">
            <Array as="points">
              <mxPoint x="817" y="550" />
            </Array>
          </mxGeometry>
        </mxCell>
        <mxCell id="1cEkrv7Ao01gGzmioIyL-502" value="" style="shape=mxgraph.flowchart.process;fillColor=#AE4132;strokeColor=none;strokeWidth=2;opacity=50" vertex="1" parent="1">
          <mxGeometry x="766.5" y="540" width="40" height="20" as="geometry" />
        </mxCell>
        <mxCell id="1cEkrv7Ao01gGzmioIyL-506" style="edgeStyle=orthogonalEdgeStyle;rounded=0;orthogonalLoop=1;jettySize=auto;html=1;entryX=0.246;entryY=0.033;entryDx=0;entryDy=0;entryPerimeter=0;" edge="1" parent="1" source="1cEkrv7Ao01gGzmioIyL-503" target="1cEkrv7Ao01gGzmioIyL-504">
          <mxGeometry relative="1" as="geometry">
            <Array as="points">
              <mxPoint x="856" y="570" />
              <mxPoint x="856" y="581" />
            </Array>
          </mxGeometry>
        </mxCell>
        <mxCell id="1cEkrv7Ao01gGzmioIyL-503" value="" style="shape=mxgraph.flowchart.process;fillColor=#AE4132;strokeColor=none;strokeWidth=2;opacity=50" vertex="1" parent="1">
          <mxGeometry x="806.5" y="560" width="40" height="20" as="geometry" />
        </mxCell>
        <mxCell id="1cEkrv7Ao01gGzmioIyL-504" value="" style="shape=mxgraph.flowchart.process;fillColor=#AE4132;strokeColor=none;strokeWidth=2;opacity=50" vertex="1" parent="1">
          <mxGeometry x="846.5" y="580" width="40" height="20" as="geometry" />
        </mxCell>
        <mxCell id="1cEkrv7Ao01gGzmioIyL-509" value="Topic 2: GPU-aware Optimizing Compiler" style="align=left;strokeColor=#DEEDFF;fillColor=#CCE5FF" vertex="1" parent="1">
          <mxGeometry x="126.50000000000026" y="680" width="319.9999999999998" height="20" as="geometry" />
        </mxCell>
        <mxCell id="1cEkrv7Ao01gGzmioIyL-510" value="1 Year" style="strokeColor=#DEEDFF;fillColor=#CCE5FF" vertex="1" parent="1">
          <mxGeometry x="446.50000000000136" y="680.000000000002" width="80.00000000000028" height="20" as="geometry" />
        </mxCell>
        <mxCell id="1cEkrv7Ao01gGzmioIyL-511" value="26.01" style="strokeColor=#DEEDFF;fillColor=#CCE5FF" vertex="1" parent="1">
          <mxGeometry x="526.5000000000016" y="680.000000000002" width="80.00000000000028" height="20" as="geometry" />
        </mxCell>
        <mxCell id="1cEkrv7Ao01gGzmioIyL-512" value="26.10.30" style="strokeColor=#DEEDFF;fillColor=#CCE5FF" vertex="1" parent="1">
          <mxGeometry x="606.5000000000011" y="680.0000000000023" width="80.00000000000028" height="20" as="geometry" />
        </mxCell>
        <mxCell id="1cEkrv7Ao01gGzmioIyL-513" value="Engineering: MLIR familiarization" style="align=left;strokeColor=#DEEDFF" vertex="1" parent="1">
          <mxGeometry x="126.50000000000136" y="700.000000000003" width="319.99999999999864" height="20" as="geometry" />
        </mxCell>
        <mxCell id="1cEkrv7Ao01gGzmioIyL-514" value="2 Months" style="strokeColor=#DEEDFF" vertex="1" parent="1">
          <mxGeometry x="446.5000000000032" y="700.000000000003" width="80.00000000000028" height="20" as="geometry" />
        </mxCell>
        <mxCell id="1cEkrv7Ao01gGzmioIyL-515" value="25.11" style="strokeColor=#DEEDFF" vertex="1" parent="1">
          <mxGeometry x="526.5000000000034" y="700.000000000003" width="80.00000000000028" height="20" as="geometry" />
        </mxCell>
        <mxCell id="1cEkrv7Ao01gGzmioIyL-516" value="25.12" style="strokeColor=#DEEDFF" vertex="1" parent="1">
          <mxGeometry x="606.500000000003" y="700.0000000000032" width="80.00000000000028" height="20" as="geometry" />
        </mxCell>
        <mxCell id="1cEkrv7Ao01gGzmioIyL-517" value="" style="shape=mxgraph.flowchart.process;fillColor=#AE4132;strokeColor=#000000;strokeWidth=2;opacity=50" vertex="1" parent="1">
          <mxGeometry x="886.5" y="680" width="240" height="20" as="geometry" />
        </mxCell>
        <mxCell id="1cEkrv7Ao01gGzmioIyL-523" value="CGO CFP" style="strokeColor=#DEEDFF;fillColor=#9AC7BF;" vertex="1" parent="1">
          <mxGeometry x="1542" y="940" width="103.5" height="20" as="geometry" />
        </mxCell>
        <mxCell id="1cEkrv7Ao01gGzmioIyL-524" value="ASPLOS CFP" style="strokeColor=#DEEDFF;fillColor=#D4E1F5;" vertex="1" parent="1">
          <mxGeometry x="1541" y="960" width="103.5" height="20" as="geometry" />
        </mxCell>
        <mxCell id="1cEkrv7Ao01gGzmioIyL-525" value="PLDI CFP" style="strokeColor=#DEEDFF;fillColor=#E6D0DE;" vertex="1" parent="1">
          <mxGeometry x="1540.5" y="980" width="103.5" height="20" as="geometry" />
        </mxCell>
        <mxCell id="1cEkrv7Ao01gGzmioIyL-527" value="Data collection &amp; cleaning for cost model" style="align=left;strokeColor=#DEEDFF" vertex="1" parent="1">
          <mxGeometry x="126.50000000000136" y="720.000000000003" width="319.99999999999864" height="20" as="geometry" />
        </mxCell>
        <mxCell id="1cEkrv7Ao01gGzmioIyL-528" value="The Thesis" style="align=left;strokeColor=#DEEDFF" vertex="1" parent="1">
          <mxGeometry x="126.50000000000102" y="800.0000000000023" width="319.999999999999" height="20" as="geometry" />
        </mxCell>
        <mxCell id="1cEkrv7Ao01gGzmioIyL-529" value="6 Months" style="strokeColor=#DEEDFF" vertex="1" parent="1">
          <mxGeometry x="446.5000000000017" y="800" width="80.00000000000028" height="20" as="geometry" />
        </mxCell>
        <mxCell id="1cEkrv7Ao01gGzmioIyL-530" value="27.4" style="strokeColor=#DEEDFF" vertex="1" parent="1">
          <mxGeometry x="526.500000000002" y="800" width="80.00000000000028" height="20" as="geometry" />
        </mxCell>
        <mxCell id="1cEkrv7Ao01gGzmioIyL-531" value="27.10.30" style="strokeColor=#DEEDFF" vertex="1" parent="1">
          <mxGeometry x="606.5000000000015" y="800.0000000000005" width="80.00000000000028" height="20" as="geometry" />
        </mxCell>
        <mxCell id="1cEkrv7Ao01gGzmioIyL-532" value="" style="shape=mxgraph.flowchart.process;fillColor=#AE4132;strokeColor=none;strokeWidth=2;opacity=50" vertex="1" parent="1">
          <mxGeometry x="1227" y="800" width="140" height="20" as="geometry" />
        </mxCell>
        <mxCell id="1cEkrv7Ao01gGzmioIyL-533" value="4 Months" style="strokeColor=#DEEDFF" vertex="1" parent="1">
          <mxGeometry x="446.5000000000032" y="720.000000000003" width="80.00000000000028" height="20" as="geometry" />
        </mxCell>
        <mxCell id="1cEkrv7Ao01gGzmioIyL-534" value="26.01" style="strokeColor=#DEEDFF" vertex="1" parent="1">
          <mxGeometry x="526.5000000000034" y="720.000000000003" width="80.00000000000028" height="20" as="geometry" />
        </mxCell>
        <mxCell id="1cEkrv7Ao01gGzmioIyL-535" value="26.04" style="strokeColor=#DEEDFF" vertex="1" parent="1">
          <mxGeometry x="606.500000000003" y="720.0000000000032" width="80.00000000000028" height="20" as="geometry" />
        </mxCell>
        <mxCell id="1cEkrv7Ao01gGzmioIyL-536" value="Compiler tuning, engineering and benchmarking" style="align=left;strokeColor=#DEEDFF" vertex="1" parent="1">
          <mxGeometry x="126.50000000000136" y="740.000000000003" width="319.99999999999864" height="20" as="geometry" />
        </mxCell>
        <mxCell id="1cEkrv7Ao01gGzmioIyL-537" value="4 Months" style="strokeColor=#DEEDFF" vertex="1" parent="1">
          <mxGeometry x="446.5000000000032" y="740.000000000003" width="80.00000000000028" height="20" as="geometry" />
        </mxCell>
        <mxCell id="1cEkrv7Ao01gGzmioIyL-538" value="26.04" style="strokeColor=#DEEDFF" vertex="1" parent="1">
          <mxGeometry x="526.5000000000034" y="740.000000000003" width="80.00000000000028" height="20" as="geometry" />
        </mxCell>
        <mxCell id="1cEkrv7Ao01gGzmioIyL-539" value="26.08" style="strokeColor=#DEEDFF" vertex="1" parent="1">
          <mxGeometry x="606.500000000003" y="740.0000000000032" width="80.00000000000028" height="20" as="geometry" />
        </mxCell>
        <mxCell id="1cEkrv7Ao01gGzmioIyL-590" style="edgeStyle=orthogonalEdgeStyle;rounded=0;orthogonalLoop=1;jettySize=auto;html=1;entryX=0.12;entryY=0.045;entryDx=0;entryDy=0;entryPerimeter=0;" edge="1" parent="1" source="1cEkrv7Ao01gGzmioIyL-540" target="1cEkrv7Ao01gGzmioIyL-542">
          <mxGeometry relative="1" as="geometry">
            <Array as="points">
              <mxPoint x="936" y="710" />
            </Array>
          </mxGeometry>
        </mxCell>
        <mxCell id="1cEkrv7Ao01gGzmioIyL-540" value="" style="shape=mxgraph.flowchart.process;fillColor=#AE4132;strokeColor=none;strokeWidth=2;opacity=50" vertex="1" parent="1">
          <mxGeometry x="886.5" y="700" width="40" height="20" as="geometry" />
        </mxCell>
        <mxCell id="1cEkrv7Ao01gGzmioIyL-593" style="edgeStyle=orthogonalEdgeStyle;rounded=0;orthogonalLoop=1;jettySize=auto;html=1;entryX=0.219;entryY=0.01;entryDx=0;entryDy=0;entryPerimeter=0;" edge="1" parent="1" source="1cEkrv7Ao01gGzmioIyL-541" target="1cEkrv7Ao01gGzmioIyL-556">
          <mxGeometry relative="1" as="geometry">
            <Array as="points">
              <mxPoint x="1096" y="750" />
              <mxPoint x="1096" y="760" />
            </Array>
          </mxGeometry>
        </mxCell>
        <mxCell id="1cEkrv7Ao01gGzmioIyL-541" value="" style="shape=mxgraph.flowchart.process;fillColor=#AE4132;strokeColor=none;strokeWidth=2;opacity=50" vertex="1" parent="1">
          <mxGeometry x="1006" y="740" width="80" height="20" as="geometry" />
        </mxCell>
        <mxCell id="1cEkrv7Ao01gGzmioIyL-591" style="edgeStyle=orthogonalEdgeStyle;rounded=0;orthogonalLoop=1;jettySize=auto;html=1;entryX=0.113;entryY=0.028;entryDx=0;entryDy=0;entryPerimeter=0;" edge="1" parent="1" source="1cEkrv7Ao01gGzmioIyL-542" target="1cEkrv7Ao01gGzmioIyL-541">
          <mxGeometry relative="1" as="geometry">
            <mxPoint x="1020" y="740" as="targetPoint" />
            <Array as="points">
              <mxPoint x="1015" y="730" />
            </Array>
          </mxGeometry>
        </mxCell>
        <mxCell id="1cEkrv7Ao01gGzmioIyL-542" value="" style="shape=mxgraph.flowchart.process;fillColor=#AE4132;strokeColor=none;strokeWidth=2;opacity=50" vertex="1" parent="1">
          <mxGeometry x="926.5" y="720" width="80" height="20" as="geometry" />
        </mxCell>
        <mxCell id="1cEkrv7Ao01gGzmioIyL-545" value="" style="shape=mxgraph.flowchart.process;fillColor=#AE4132;strokeColor=none;strokeWidth=2;opacity=50" vertex="1" parent="1">
          <mxGeometry x="880" y="500" width="7" height="20" as="geometry" />
        </mxCell>
        <mxCell id="1cEkrv7Ao01gGzmioIyL-546" value="Oral Defense" style="align=left;strokeColor=#DEEDFF" vertex="1" parent="1">
          <mxGeometry x="126.49999999999977" y="480.0000000000018" width="320.0000000000003" height="20" as="geometry" />
        </mxCell>
        <mxCell id="1cEkrv7Ao01gGzmioIyL-547" value="1 month" style="strokeColor=#DEEDFF" vertex="1" parent="1">
          <mxGeometry x="446.50000000000136" y="480.0000000000018" width="80.00000000000028" height="20" as="geometry" />
        </mxCell>
        <mxCell id="1cEkrv7Ao01gGzmioIyL-548" value="25.08" style="strokeColor=#DEEDFF" vertex="1" parent="1">
          <mxGeometry x="526.5000000000018" y="480.0000000000018" width="80.00000000000028" height="20" as="geometry" />
        </mxCell>
        <mxCell id="1cEkrv7Ao01gGzmioIyL-549" value="25.09.15" style="strokeColor=#DEEDFF" vertex="1" parent="1">
          <mxGeometry x="606.5000000000011" y="480.00000000000205" width="80.00000000000028" height="20" as="geometry" />
        </mxCell>
        <mxCell id="1cEkrv7Ao01gGzmioIyL-552" value="Paper Preparation for PLDI&#39;27 CFP" style="align=left;strokeColor=#DEEDFF" vertex="1" parent="1">
          <mxGeometry x="126.50000000000136" y="760.000000000003" width="319.99999999999864" height="20" as="geometry" />
        </mxCell>
        <mxCell id="1cEkrv7Ao01gGzmioIyL-553" value="2 Months" style="strokeColor=#DEEDFF" vertex="1" parent="1">
          <mxGeometry x="446.5000000000032" y="760.000000000003" width="80.00000000000028" height="20" as="geometry" />
        </mxCell>
        <mxCell id="1cEkrv7Ao01gGzmioIyL-554" value="26.08" style="strokeColor=#DEEDFF" vertex="1" parent="1">
          <mxGeometry x="526.5000000000034" y="760.000000000003" width="80.00000000000028" height="20" as="geometry" />
        </mxCell>
        <mxCell id="1cEkrv7Ao01gGzmioIyL-555" value="26.10" style="strokeColor=#DEEDFF" vertex="1" parent="1">
          <mxGeometry x="606.500000000003" y="760.0000000000032" width="80.00000000000028" height="20" as="geometry" />
        </mxCell>
        <mxCell id="1cEkrv7Ao01gGzmioIyL-556" value="" style="shape=mxgraph.flowchart.process;fillColor=#AE4132;strokeColor=none;strokeWidth=2;opacity=50" vertex="1" parent="1">
          <mxGeometry x="1087" y="760" width="40" height="20" as="geometry" />
        </mxCell>
        <mxCell id="1cEkrv7Ao01gGzmioIyL-557" value="" style="shape=mxgraph.flowchart.process;fillColor=#AE4132;strokeColor=none;strokeWidth=2;opacity=50" vertex="1" parent="1">
          <mxGeometry x="1120" y="660" width="7" height="20" as="geometry" />
        </mxCell>
        <mxCell id="1cEkrv7Ao01gGzmioIyL-558" value="" style="shape=mxgraph.flowchart.process;fillColor=#AE4132;strokeColor=none;strokeWidth=2;opacity=50" vertex="1" parent="1">
          <mxGeometry x="1060" y="640" width="60" height="20" as="geometry" />
        </mxCell>
        <mxCell id="1cEkrv7Ao01gGzmioIyL-559" value="Topic 3: Optimizing Compiler for Heterogeneous Architectures" style="align=left;strokeColor=#DEEDFF;fillColor=#CCE5FF" vertex="1" parent="1">
          <mxGeometry x="126.50000000000026" y="820" width="319.9999999999998" height="20" as="geometry" />
        </mxCell>
        <mxCell id="1cEkrv7Ao01gGzmioIyL-560" value="1 Year" style="strokeColor=#DEEDFF;fillColor=#CCE5FF" vertex="1" parent="1">
          <mxGeometry x="446.50000000000136" y="820.000000000002" width="80.00000000000028" height="20" as="geometry" />
        </mxCell>
        <mxCell id="1cEkrv7Ao01gGzmioIyL-561" value="26.11" style="strokeColor=#DEEDFF;fillColor=#CCE5FF" vertex="1" parent="1">
          <mxGeometry x="526.5000000000016" y="820.000000000002" width="80.00000000000028" height="20" as="geometry" />
        </mxCell>
        <mxCell id="1cEkrv7Ao01gGzmioIyL-562" value="27.10.30" style="strokeColor=#DEEDFF;fillColor=#CCE5FF" vertex="1" parent="1">
          <mxGeometry x="606.5000000000011" y="820.0000000000023" width="80.00000000000028" height="20" as="geometry" />
        </mxCell>
        <mxCell id="1cEkrv7Ao01gGzmioIyL-563" value="Engineering: FPGA/TPU familiarization" style="align=left;strokeColor=#DEEDFF" vertex="1" parent="1">
          <mxGeometry x="126.50000000000136" y="840.000000000003" width="319.99999999999864" height="20" as="geometry" />
        </mxCell>
        <mxCell id="1cEkrv7Ao01gGzmioIyL-564" value="4 Months" style="strokeColor=#DEEDFF" vertex="1" parent="1">
          <mxGeometry x="446.5000000000032" y="840.000000000003" width="80.00000000000028" height="20" as="geometry" />
        </mxCell>
        <mxCell id="1cEkrv7Ao01gGzmioIyL-565" value="26.11" style="strokeColor=#DEEDFF" vertex="1" parent="1">
          <mxGeometry x="526.5000000000034" y="840.000000000003" width="80.00000000000028" height="20" as="geometry" />
        </mxCell>
        <mxCell id="1cEkrv7Ao01gGzmioIyL-566" value="27.02" style="strokeColor=#DEEDFF" vertex="1" parent="1">
          <mxGeometry x="606.500000000003" y="840.0000000000032" width="80.00000000000028" height="20" as="geometry" />
        </mxCell>
        <mxCell id="1cEkrv7Ao01gGzmioIyL-567" value="Data collection &amp; cleaning for cost model" style="align=left;strokeColor=#DEEDFF" vertex="1" parent="1">
          <mxGeometry x="126.50000000000136" y="860.000000000003" width="319.99999999999864" height="20" as="geometry" />
        </mxCell>
        <mxCell id="1cEkrv7Ao01gGzmioIyL-568" value="3 Months" style="strokeColor=#DEEDFF" vertex="1" parent="1">
          <mxGeometry x="446.5000000000032" y="860.000000000003" width="80.00000000000028" height="20" as="geometry" />
        </mxCell>
        <mxCell id="1cEkrv7Ao01gGzmioIyL-569" value="27.03" style="strokeColor=#DEEDFF" vertex="1" parent="1">
          <mxGeometry x="526.5000000000034" y="860.000000000003" width="80.00000000000028" height="20" as="geometry" />
        </mxCell>
        <mxCell id="1cEkrv7Ao01gGzmioIyL-570" value="27.05" style="strokeColor=#DEEDFF" vertex="1" parent="1">
          <mxGeometry x="606.500000000003" y="860.0000000000032" width="80.00000000000028" height="20" as="geometry" />
        </mxCell>
        <mxCell id="1cEkrv7Ao01gGzmioIyL-571" value="Compiler engineering and tuning" style="align=left;strokeColor=#DEEDFF" vertex="1" parent="1">
          <mxGeometry x="126.50000000000136" y="880.000000000003" width="319.99999999999864" height="20" as="geometry" />
        </mxCell>
        <mxCell id="1cEkrv7Ao01gGzmioIyL-572" value="2 Months" style="strokeColor=#DEEDFF" vertex="1" parent="1">
          <mxGeometry x="446.5000000000032" y="880.000000000003" width="80.00000000000028" height="20" as="geometry" />
        </mxCell>
        <mxCell id="1cEkrv7Ao01gGzmioIyL-573" value="27.06" style="strokeColor=#DEEDFF" vertex="1" parent="1">
          <mxGeometry x="526.5000000000034" y="880.000000000003" width="80.00000000000028" height="20" as="geometry" />
        </mxCell>
        <mxCell id="1cEkrv7Ao01gGzmioIyL-574" value="27.07" style="strokeColor=#DEEDFF" vertex="1" parent="1">
          <mxGeometry x="606.500000000003" y="880.0000000000032" width="80.00000000000028" height="20" as="geometry" />
        </mxCell>
        <mxCell id="1cEkrv7Ao01gGzmioIyL-575" value="" style="shape=mxgraph.flowchart.process;fillColor=#AE4132;strokeColor=none;strokeWidth=2;opacity=50" vertex="1" parent="1">
          <mxGeometry x="985" y="620" width="135" height="20" as="geometry" />
        </mxCell>
        <mxCell id="1cEkrv7Ao01gGzmioIyL-576" value="" style="shape=mxgraph.flowchart.process;fillColor=#AE4132;strokeColor=none;strokeWidth=2;opacity=50" vertex="1" parent="1">
          <mxGeometry x="1127" y="840" width="80" height="20" as="geometry" />
        </mxCell>
        <mxCell id="1cEkrv7Ao01gGzmioIyL-577" value="" style="shape=mxgraph.flowchart.process;fillColor=#AE4132;strokeColor=#000000;strokeWidth=2;opacity=50" vertex="1" parent="1">
          <mxGeometry x="1127" y="820" width="240" height="20" as="geometry" />
        </mxCell>
        <mxCell id="1cEkrv7Ao01gGzmioIyL-578" value="" style="shape=mxgraph.flowchart.process;fillColor=#AE4132;strokeColor=none;strokeWidth=2;opacity=50" vertex="1" parent="1">
          <mxGeometry x="1207" y="860" width="60" height="20" as="geometry" />
        </mxCell>
        <mxCell id="1cEkrv7Ao01gGzmioIyL-579" value="" style="shape=mxgraph.flowchart.process;fillColor=#AE4132;strokeColor=none;strokeWidth=2;opacity=50" vertex="1" parent="1">
          <mxGeometry x="1306.5" y="900" width="60" height="20" as="geometry" />
        </mxCell>
        <mxCell id="1cEkrv7Ao01gGzmioIyL-580" value="Paper Preparation for PLDI&#39;28 CFP" style="align=left;strokeColor=#DEEDFF" vertex="1" parent="1">
          <mxGeometry x="126.5" y="900" width="320" height="20" as="geometry" />
        </mxCell>
        <mxCell id="1cEkrv7Ao01gGzmioIyL-581" value="3 Months" style="strokeColor=#DEEDFF" vertex="1" parent="1">
          <mxGeometry x="446.5000000000032" y="900.000000000003" width="80.00000000000028" height="20" as="geometry" />
        </mxCell>
        <mxCell id="1cEkrv7Ao01gGzmioIyL-582" value="27.08" style="strokeColor=#DEEDFF" vertex="1" parent="1">
          <mxGeometry x="526.5000000000034" y="900.000000000003" width="80.00000000000028" height="20" as="geometry" />
        </mxCell>
        <mxCell id="1cEkrv7Ao01gGzmioIyL-583" value="27.10" style="strokeColor=#DEEDFF" vertex="1" parent="1">
          <mxGeometry x="606.500000000003" y="900.0000000000032" width="80.00000000000028" height="20" as="geometry" />
        </mxCell>
        <mxCell id="1cEkrv7Ao01gGzmioIyL-584" value="27" style="strokeColor=#DEEDFF" vertex="1" parent="1">
          <mxGeometry x="86.50000000000102" y="900.0000000000036" width="40" height="20" as="geometry" />
        </mxCell>
        <mxCell id="1cEkrv7Ao01gGzmioIyL-585" value="" style="shape=mxgraph.flowchart.process;fillColor=#AE4132;strokeColor=none;strokeWidth=2;opacity=50" vertex="1" parent="1">
          <mxGeometry x="1266.5" y="880" width="40" height="20" as="geometry" />
        </mxCell>
      </root>
    </mxGraphModel>
  </diagram>
</mxfile>
